<?xml version="1.0" encoding="utf-8"?>
<svg version="1.1" xmlns:xlink="http://www.w3.org/1999/xlink" width="20px" height="20px" xmlns="http://www.w3.org/2000/svg">
  <g transform="matrix(1 0 0 1 -18 -15 )">
    <path d="M 8.4423828125 15.33203125  C 8.6474609375 14.9978298611111  8.75 14.5920138888889  8.75 14.1145833333333  C 8.75 13.6458333333333  8.7255859375 13.2096354166667  8.6767578125 12.8059895833333  C 8.6279296875 12.40234375  8.54817708333333 12.01171875  8.4375 11.6341145833333  C 8.32682291666667 11.2565104166667  8.16080729166667 10.9592013888889  7.939453125 10.7421875  C 7.71809895833333 10.5251736111111  7.45442708333333 10.4166666666667  7.1484375 10.4166666666667  C 6.73177083333333 10.9722222222222  6.22395833333333 11.25  5.625 11.25  C 5.02604166666667 11.25  4.51822916666667 10.9722222222222  4.1015625 10.4166666666667  C 3.79557291666667 10.4166666666667  3.53190104166667 10.5251736111111  3.310546875 10.7421875  C 3.08919270833333 10.9592013888889  2.92317708333333 11.2565104166667  2.8125 11.6341145833333  C 2.70182291666667 12.01171875  2.6220703125 12.40234375  2.5732421875 12.8059895833333  C 2.5244140625 13.2096354166667  2.5 13.6458333333333  2.5 14.1145833333333  C 2.5 14.5920138888889  2.6025390625 14.9978298611111  2.8076171875 15.33203125  C 3.0126953125 15.6662326388889  3.25846354166667 15.8333333333333  3.544921875 15.8333333333333  L 7.705078125 15.8333333333333  C 7.99153645833333 15.8333333333333  8.2373046875 15.6662326388889  8.4423828125 15.33203125  Z M 6.953125 10.1041666666667  C 7.31770833333333 9.61805555555556  7.5 9.02777777777778  7.5 8.33333333333333  C 7.5 7.63888888888889  7.31770833333333 7.04861111111111  6.953125 6.5625  C 6.58854166666667 6.07638888888889  6.14583333333333 5.83333333333333  5.625 5.83333333333333  C 5.10416666666667 5.83333333333333  4.66145833333333 6.07638888888889  4.296875 6.5625  C 3.93229166666667 7.04861111111111  3.75 7.63888888888889  3.75 8.33333333333333  C 3.75 9.02777777777778  3.93229166666667 9.61805555555556  4.296875 10.1041666666667  C 4.66145833333333 10.5902777777778  5.10416666666667 10.8333333333333  5.625 10.8333333333333  C 6.14583333333333 10.8333333333333  6.58854166666667 10.5902777777778  6.953125 10.1041666666667  Z M 17.412109375 14.8828125  C 17.470703125 14.8046875  17.5 14.7048611111111  17.5 14.5833333333333  L 17.5 13.75  C 17.5 13.6284722222222  17.470703125 13.5286458333333  17.412109375 13.4505208333333  C 17.353515625 13.3723958333333  17.2786458333333 13.3333333333333  17.1875 13.3333333333333  L 10.3125 13.3333333333333  C 10.2213541666667 13.3333333333333  10.146484375 13.3723958333333  10.087890625 13.4505208333333  C 10.029296875 13.5286458333333  10 13.6284722222222  10 13.75  L 10 14.5833333333333  C 10 14.7048611111111  10.029296875 14.8046875  10.087890625 14.8828125  C 10.146484375 14.9609375  10.2213541666667 15  10.3125 15  L 17.1875 15  C 17.2786458333333 15  17.353515625 14.9609375  17.412109375 14.8828125  Z M 13.662109375 11.5494791666667  C 13.720703125 11.4713541666667  13.75 11.3715277777778  13.75 11.25  L 13.75 10.4166666666667  C 13.75 10.2951388888889  13.720703125 10.1953125  13.662109375 10.1171875  C 13.603515625 10.0390625  13.5286458333333 10  13.4375 10  L 10.3125 10  C 10.2213541666667 10  10.146484375 10.0390625  10.087890625 10.1171875  C 10.029296875 10.1953125  10 10.2951388888889  10 10.4166666666667  L 10 11.25  C 10 11.3715277777778  10.029296875 11.4713541666667  10.087890625 11.5494791666667  C 10.146484375 11.6276041666667  10.2213541666667 11.6666666666667  10.3125 11.6666666666667  L 13.4375 11.6666666666667  C 13.5286458333333 11.6666666666667  13.603515625 11.6276041666667  13.662109375 11.5494791666667  Z M 17.412109375 11.5494791666667  C 17.470703125 11.4713541666667  17.5 11.3715277777778  17.5 11.25  L 17.5 10.4166666666667  C 17.5 10.2951388888889  17.470703125 10.1953125  17.412109375 10.1171875  C 17.353515625 10.0390625  17.2786458333333 10  17.1875 10  L 15.3125 10  C 15.2213541666667 10  15.146484375 10.0390625  15.087890625 10.1171875  C 15.029296875 10.1953125  15 10.2951388888889  15 10.4166666666667  L 15 11.25  C 15 11.3715277777778  15.029296875 11.4713541666667  15.087890625 11.5494791666667  C 15.146484375 11.6276041666667  15.2213541666667 11.6666666666667  15.3125 11.6666666666667  L 17.1875 11.6666666666667  C 17.2786458333333 11.6666666666667  17.353515625 11.6276041666667  17.412109375 11.5494791666667  Z M 17.412109375 8.21614583333333  C 17.470703125 8.13802083333333  17.5 8.03819444444444  17.5 7.91666666666667  L 17.5 7.08333333333333  C 17.5 6.96180555555556  17.470703125 6.86197916666667  17.412109375 6.78385416666667  C 17.353515625 6.70572916666667  17.2786458333333 6.66666666666667  17.1875 6.66666666666667  L 10.3125 6.66666666666667  C 10.2213541666667 6.66666666666667  10.146484375 6.70572916666667  10.087890625 6.78385416666667  C 10.029296875 6.86197916666667  10 6.96180555555556  10 7.08333333333333  L 10 7.91666666666667  C 10 8.03819444444444  10.029296875 8.13802083333333  10.087890625 8.21614583333333  C 10.146484375 8.29427083333333  10.2213541666667 8.33333333333333  10.3125 8.33333333333333  L 17.1875 8.33333333333333  C 17.2786458333333 8.33333333333333  17.353515625 8.29427083333333  17.412109375 8.21614583333333  Z M 1.25 2.08333333333333  L 1.25 3.33333333333333  L 18.75 3.33333333333333  L 18.75 2.08333333333333  C 18.75 1.96180555555555  18.720703125 1.86197916666667  18.662109375 1.78385416666667  C 18.603515625 1.70572916666667  18.5286458333333 1.66666666666667  18.4375 2  L 1.5625 2  C 1.47135416666667 1.66666666666667  1.396484375 1.70572916666667  1.337890625 1.78385416666667  C 1.279296875 1.86197916666667  1.25 1.96180555555555  1.25 2.08333333333333  Z M 19.541015625 0.611979166666667  C 19.8470052083333 1.01996527777778  20 1.51041666666667  20 2.08333333333333  L 20 17.9166666666667  C 20 18.4895833333333  19.8470052083333 18.9800347222222  19.541015625 19.3880208333333  C 19.2350260416667 19.7960069444444  18.8671875 20  18.4375 20  L 1.5625 20  C 1.1328125 20  0.764973958333333 19.7960069444444  0.458984375 19.3880208333333  C 0.152994791666667 18.9800347222222  0 18.4895833333333  0 17.9166666666667  L 0 2.08333333333333  C 0 1.51041666666667  0.152994791666667 1.01996527777778  0.458984375 0.611979166666667  C 0.764973958333333 0.203993055555554  1.1328125 0  1.5625 0  L 18.4375 0  C 18.8671875 0  19.2350260416667 0.203993055555554  19.541015625 0.611979166666667  Z " fill-rule="nonzero" fill="#0079fe" stroke="none" transform="matrix(1 0 0 1 18 15 )" />
  </g>
</svg>