<?xml version="1.0" encoding="utf-8"?>
<svg version="1.1" xmlns:xlink="http://www.w3.org/1999/xlink" width="20px" height="20px" xmlns="http://www.w3.org/2000/svg">
  <g transform="matrix(1 0 0 1 -16 -13 )">
    <path d="M 0.40133779264214 15.7142857142857  L 19.5986622073579 15.7142857142857  L 19.9888517279822 19.2075892857143  C 20.0111482720178 19.4159226190476  19.951690821256 19.6019345238095  19.8104793756968 19.765625  C 19.6692679301375 19.921875  19.4908955778521 20  19.2753623188406 20  L 0.72463768115942 20  C 0.5091044221479 20  0.330732069862505 19.921875  0.189520624303233 19.765625  C 0.0483091787439614 19.6019345238095  -0.0111482720178372 19.4159226190476  0.0111482720178372 19.2075892857143  L 0.40133779264214 15.7142857142857  Z M 18.3277591973244 5.8984375  C 18.4615384615385 6.02120535714286  18.5395763656633 6.171875  18.561872909699 6.35044642857143  L 19.520624303233 15  L 0.479375696767001 15  L 1.438127090301 6.35044642857143  C 1.46042363433668 6.171875  1.53846153846154 6.02120535714286  1.67224080267559 5.8984375  C 1.80602006688963 5.77566964285714  1.96581196581197 5.71428571428571  2.15161649944259 5.71428571428571  L 5.00557413600892 5.71428571428571  L 5.00557413600892 7.14285714285714  C 5.00557413600892 7.53720238095238  5.14492753623188 7.87388392857143  5.42363433667782 8.15290178571429  C 5.70234113712375 8.43191964285714  6.03864734299517 8.57142857142857  6.43255295429208 8.57142857142857  C 6.826458565589 8.57142857142857  7.16276477146042 8.43191964285714  7.44147157190635 8.15290178571429  C 7.72017837235229 7.87388392857143  7.85953177257525 7.53720238095238  7.85953177257525 7.14285714285714  L 7.85953177257525 5.71428571428571  L 12.1404682274247 5.71428571428571  L 12.1404682274247 7.14285714285714  C 12.1404682274247 7.53720238095238  12.2798216276477 7.87388392857143  12.5585284280936 8.15290178571429  C 12.8372352285396 8.43191964285714  13.173541434411 8.57142857142857  13.5674470457079 8.57142857142857  C 13.9613526570048 8.57142857142857  14.2976588628763 8.43191964285714  14.5763656633222 8.15290178571429  C 14.8550724637681 7.87388392857143  14.9944258639911 7.53720238095238  14.9944258639911 7.14285714285714  L 14.9944258639911 5.71428571428571  L 17.8483835005574 5.71428571428571  C 18.034188034188 5.71428571428571  18.1939799331104 5.77566964285714  18.3277591973244 5.8984375  Z M 13.0267558528428 1.25558035714286  C 13.8628762541806 2.09263392857143  14.2809364548495 3.10267857142857  14.2809364548495 4.28571428571429  L 14.2809364548495 7.14285714285714  C 14.2809364548495 7.33630952380952  14.2103307320699 7.50372023809524  14.0691192865106 7.64508928571429  C 13.9279078409513 7.78645833333333  13.7606837606838 7.85714285714286  13.5674470457079 7.85714285714286  C 13.3742103307321 7.85714285714286  13.2069862504645 7.78645833333333  13.0657748049052 7.64508928571429  C 12.924563359346 7.50372023809524  12.8539576365663 7.33630952380952  12.8539576365663 7.14285714285714  L 12.8539576365663 4.28571428571429  C 12.8539576365663 3.49702380952381  12.5752508361204 2.82366071428571  12.0178372352285 2.265625  C 11.4604236343367 1.70758928571429  10.7878112225938 1.42857142857143  10 1.42857142857143  C 9.21218877740617 1.42857142857143  8.53957636566332 1.70758928571429  7.98216276477146 2.265625  C 7.4247491638796 2.82366071428571  7.14604236343367 3.49702380952381  7.14604236343367 4.28571428571429  L 7.14604236343367 7.14285714285714  C 7.14604236343367 7.33630952380952  7.07543664065403 7.50372023809524  6.93422519509476 7.64508928571429  C 6.79301374953549 7.78645833333333  6.62578966926793 7.85714285714286  6.43255295429208 7.85714285714286  C 6.23931623931624 7.85714285714286  6.07209215904868 7.78645833333333  5.93088071348941 7.64508928571429  C 5.78966926793014 7.50372023809524  5.7190635451505 7.33630952380952  5.7190635451505 7.14285714285714  L 5.7190635451505 4.28571428571429  C 5.7190635451505 3.10267857142857  6.1371237458194 2.09263392857143  6.97324414715719 1.25558035714286  C 7.80936454849498 0.418526785714286  8.81828316610925 0  10 0  C 11.1817168338907 0  12.190635451505 0.418526785714286  13.0267558528428 1.25558035714286  Z " fill-rule="nonzero" fill="#0079fe" stroke="none" transform="matrix(1 0 0 1 16 13 )" />
  </g>
</svg>