<?xml version="1.0" encoding="utf-8"?>
<svg version="1.1" xmlns:xlink="http://www.w3.org/1999/xlink" width="20px" height="20px" xmlns="http://www.w3.org/2000/svg">
  <g transform="matrix(1 0 0 1 -17 -13 )">
    <path d="M 3.8671875 14.0127840909091  C 4.14620535714286 13.6576704545455  4.28571428571429 13.2291666666667  4.28571428571429 12.7272727272727  C 4.28571428571429 12.2253787878788  4.14620535714286 11.796875  3.8671875 11.4417613636364  C 3.58816964285714 11.0866477272727  3.2514880952381 10.9090909090909  2.85714285714286 10.9090909090909  C 2.46279761904762 10.9090909090909  2.12611607142857 11.0866477272727  1.84709821428571 11.4417613636364  C 1.56808035714286 11.796875  1.42857142857143 12.2253787878788  1.42857142857143 12.7272727272727  C 1.42857142857143 13.2291666666667  1.56808035714286 13.6576704545455  1.84709821428571 14.0127840909091  C 2.12611607142857 14.3678977272727  2.46279761904762 14.5454545454545  2.85714285714286 14.5454545454545  C 3.2514880952381 14.5454545454545  3.58816964285714 14.3678977272727  3.8671875 14.0127840909091  Z M 6.01004464285714 7.64914772727273  C 6.2890625 7.29403409090909  6.42857142857143 6.8655303030303  6.42857142857143 6.36363636363637  C 6.42857142857143 5.86174242424242  6.2890625 5.43323863636363  6.01004464285714 5.078125  C 5.73102678571429 4.72301136363637  5.39434523809524 4.54545454545455  5 4.54545454545455  C 4.60565476190476 4.54545454545455  4.26897321428571 4.72301136363637  3.98995535714286 5.078125  C 3.7109375 5.43323863636363  3.57142857142857 5.86174242424242  3.57142857142857 6.36363636363637  C 3.57142857142857 6.8655303030303  3.7109375 7.29403409090909  3.98995535714286 7.64914772727273  C 4.26897321428571 8.00426136363637  4.60565476190476 8.18181818181818  5 8.18181818181818  C 5.39434523809524 8.18181818181818  5.73102678571429 8.00426136363637  6.01004464285714 7.64914772727273  Z M 12.0089285714286 14.4886363636364  C 11.8452380952381 13.9488636363636  11.577380952381 13.5179924242424  11.2053571428571 13.1960227272727  L 12.3325892857143 7.76988636363637  C 12.3772321428571 7.52367424242424  12.3493303571429 7.29403409090909  12.2488839285714 7.08096590909091  C 12.1484375 6.86789772727272  12.0052083333333 6.7282196969697  11.8191964285714 6.66193181818182  C 11.6331845238095 6.59564393939394  11.4546130952381 6.62642045454545  11.2834821428571 6.75426136363637  C 11.1123511904762 6.88210227272727  11.000744047619 7.06912878787879  10.9486607142857 7.31534090909091  L 9.82142857142857 12.7414772727273  C 9.375 12.7888257575758  8.97693452380952 12.9947916666667  8.62723214285714 13.359375  C 8.27752976190476 13.7239583333333  8.04315476190476 14.1903409090909  7.92410714285714 14.7585227272727  C 7.77529761904762 15.4876893939394  7.84970238095238 16.1789772727273  8.14732142857143 16.8323863636364  C 8.44494047619048 17.4857954545455  8.88020833333333 17.907196969697  9.453125 18.0965909090909  C 10.0260416666667 18.2859848484848  10.5691964285714 18.1912878787879  11.0825892857143 17.8125  C 11.5959821428571 17.4337121212121  11.9270833333333 16.8797348484848  12.0758928571429 16.1505681818182  C 12.1949404761905 15.5823863636364  12.172619047619 15.0284090909091  12.0089285714286 14.4886363636364  Z M 18.1529017857143 14.0127840909091  C 18.4319196428571 13.6576704545455  18.5714285714286 13.2291666666667  18.5714285714286 12.7272727272727  C 18.5714285714286 12.2253787878788  18.4319196428571 11.796875  18.1529017857143 11.4417613636364  C 17.8738839285714 11.0866477272727  17.5372023809524 10.9090909090909  17.1428571428571 10.9090909090909  C 16.7485119047619 10.9090909090909  16.4118303571429 11.0866477272727  16.1328125 11.4417613636364  C 15.8537946428571 11.796875  15.7142857142857 12.2253787878788  15.7142857142857 12.7272727272727  C 15.7142857142857 13.2291666666667  15.8537946428571 13.6576704545455  16.1328125 14.0127840909091  C 16.4118303571429 14.3678977272727  16.7485119047619 14.5454545454545  17.1428571428571 14.5454545454545  C 17.5372023809524 14.5454545454545  17.8738839285714 14.3678977272727  18.1529017857143 14.0127840909091  Z M 11.0100446428571 4.921875  C 11.2890625 4.56676136363637  11.4285714285714 4.13825757575758  11.4285714285714 3.63636363636364  C 11.4285714285714 3.1344696969697  11.2890625 2.70596590909091  11.0100446428571 2.35085227272727  C 10.7310267857143 1.99573863636364  10.3943452380952 1.81818181818182  10 1.81818181818182  C 9.60565476190476 1.81818181818182  9.26897321428572 1.99573863636364  8.98995535714286 2.35085227272727  C 8.7109375 2.70596590909091  8.57142857142857 3.1344696969697  8.57142857142857 3.63636363636364  C 8.57142857142857 4.13825757575758  8.7109375 4.56676136363637  8.98995535714286 4.921875  C 9.26897321428572 5.27698863636363  9.60565476190476 5.45454545454545  10 5.45454545454545  C 10.3943452380952 5.45454545454545  10.7310267857143 5.27698863636363  11.0100446428571 4.921875  Z M 16.0100446428571 7.64914772727273  C 16.2890625 7.29403409090909  16.4285714285714 6.8655303030303  16.4285714285714 6.36363636363637  C 16.4285714285714 5.86174242424242  16.2890625 5.43323863636363  16.0100446428571 5.078125  C 15.7310267857143 4.72301136363637  15.3943452380952 4.54545454545455  15 4.54545454545455  C 14.6056547619048 4.54545454545455  14.2689732142857 4.72301136363637  13.9899553571429 5.078125  C 13.7109375 5.43323863636363  13.5714285714286 5.86174242424242  13.5714285714286 6.36363636363637  C 13.5714285714286 6.8655303030303  13.7109375 7.29403409090909  13.9899553571429 7.64914772727273  C 14.2689732142857 8.00426136363637  14.6056547619048 8.18181818181818  15 8.18181818181818  C 15.3943452380952 8.18181818181818  15.7310267857143 8.00426136363637  16.0100446428571 7.64914772727273  Z M 19.2075892857143 7.78409090909091  C 19.7358630952381 9.35606060606061  20 11.0037878787879  20 12.7272727272727  C 20 15.1988636363636  19.4754464285714 17.4857954545455  18.4263392857143 19.5880681818182  C 18.2849702380952 19.8626893939394  18.0840773809524 20  17.8236607142857 20  L 2.17633928571429 20  C 1.91592261904762 20  1.71502976190476 19.8626893939394  1.57366071428571 19.5880681818182  C 0.524553571428571 17.4952651515152  0 15.2083333333333  0 12.7272727272727  C 0 11.0037878787879  0.264136904761905 9.35606060606061  0.792410714285714 7.78409090909091  C 1.32068452380952 6.21212121212121  2.03125 4.85795454545455  2.92410714285714 3.72159090909091  C 3.81696428571429 2.58522727272727  4.88095238095238 1.68087121212121  6.11607142857143 1.00852272727273  C 7.35119047619048 0.336174242424241  8.64583333333333 0  10 0  C 11.3541666666667 0  12.6488095238095 0.336174242424241  13.8839285714286 1.00852272727273  C 15.1190476190476 1.68087121212121  16.1830357142857 2.58522727272727  17.0758928571429 3.72159090909091  C 17.96875 4.85795454545455  18.6793154761905 6.21212121212121  19.2075892857143 7.78409090909091  Z " fill-rule="nonzero" fill="#0079fe" stroke="none" transform="matrix(1 0 0 1 17 13 )" />
  </g>
</svg>