<?xml version="1.0" encoding="utf-8"?>
<svg version="1.1" xmlns:xlink="http://www.w3.org/1999/xlink" width="20px" height="20px" xmlns="http://www.w3.org/2000/svg">
  <g transform="matrix(1 0 0 1 -15 -15 )">
    <path d="M 0 16.3636363636364  L 4.58333333333333 16.3636363636364  L 4.58333333333333 18.1818181818182  L 0 18.1818181818182  L 0 16.3636363636364  Z M 5.83333333333333 14.5454545454545  L 9.16666666666667 14.5454545454545  C 9.39236111111111 14.5454545454545  9.58767361111111 14.6354166666667  9.75260416666667 14.8153409090909  C 9.91753472222222 14.9952651515152  10 15.2083333333333  10 15.4545454545455  L 10 19.0909090909091  C 10 19.3371212121212  9.91753472222222 19.5501893939394  9.75260416666667 19.7301136363636  C 9.58767361111111 19.9100378787879  9.39236111111111 20  9.16666666666667 20  L 5.83333333333333 20  C 5.60763888888889 20  5.41232638888889 19.9100378787879  5.24739583333333 19.7301136363636  C 5.08246527777778 19.5501893939394  5 19.3371212121212  5 19.0909090909091  L 5 15.4545454545455  C 5 15.2083333333333  5.08246527777778 14.9952651515152  5.24739583333333 14.8153409090909  C 5.41232638888889 14.6354166666667  5.60763888888889 14.5454545454545  5.83333333333333 14.5454545454545  Z M 0 9  L 11.25 9  L 11.25 11  L 0 11  L 0 9  Z M 0 1.81818181818182  L 2.91666666666667 1.81818181818182  L 2.91666666666667 3.63636363636364  L 0 3.63636363636364  L 0 1.81818181818182  Z M 10.4166666666667 16.3636363636364  L 20 16.3636363636364  L 20 18.1818181818182  L 10.4166666666667 18.1818181818182  L 10.4166666666667 16.3636363636364  Z M 4.16666666666667 0  L 7.5 0  C 7.72569444444445 0  7.92100694444445 0.0899621212121193  8.0859375 0.269886363636365  C 8.25086805555556 0.449810606060603  8.33333333333333 0.662878787878787  8.33333333333333 0.909090909090908  L 8.33333333333333 4.54545454545455  C 8.33333333333333 4.79166666666667  8.25086805555556 5.00473484848485  8.0859375 5.18465909090909  C 7.92100694444445 5.36458333333333  7.72569444444445 5.45454545454545  7.5 5.45454545454545  L 4.16666666666667 5.45454545454545  C 3.94097222222222 5.45454545454545  3.74565972222222 5.36458333333333  3.58072916666667 5.18465909090909  C 3.41579861111111 5.00473484848485  3.33333333333333 4.79166666666667  3.33333333333333 4.54545454545455  L 3.33333333333333 0.909090909090908  C 3.33333333333333 0.662878787878787  3.41579861111111 0.449810606060603  3.58072916666667 0.269886363636365  C 3.74565972222222 0.0899621212121193  3.94097222222222 0  4.16666666666667 0  Z M 12.5 7.27272727272727  L 15.8333333333333 7.27272727272727  C 16.0590277777778 7.27272727272727  16.2543402777778 7.36268939393939  16.4192708333333 7.54261363636363  C 16.5842013888889 7.72253787878788  16.6666666666667 7.93560606060606  16.6666666666667 8.18181818181818  L 16.6666666666667 11.8181818181818  C 16.6666666666667 12.0643939393939  16.5842013888889 12.2774621212121  16.4192708333333 12.4573863636364  C 16.2543402777778 12.6373106060606  16.0590277777778 12.7272727272727  15.8333333333333 12.7272727272727  L 12.5 12.7272727272727  C 12.2743055555556 12.7272727272727  12.0789930555556 12.6373106060606  11.9140625 12.4573863636364  C 11.7491319444444 12.2774621212121  11.6666666666667 12.0643939393939  11.6666666666667 11.8181818181818  L 11.6666666666667 8.18181818181818  C 11.6666666666667 7.93560606060606  11.7491319444444 7.72253787878788  11.9140625 7.54261363636363  C 12.0789930555556 7.36268939393939  12.2743055555556 7.27272727272727  12.5 7.27272727272727  Z M 17.0833333333333 9.09090909090909  L 20 9.09090909090909  L 20 10.9090909090909  L 17.0833333333333 10.9090909090909  L 17.0833333333333 9.09090909090909  Z M 8.75 2  L 20 2  L 20 4  L 8.75 4  L 8.75 2  Z " fill-rule="nonzero" fill="#0079fe" stroke="none" transform="matrix(1 0 0 1 15 15 )" />
  </g>
</svg>